
<svg version="1.0" xmlns="http://www.w3.org/2000/svg"
 width="512.000000pt" height="512.000000pt" viewBox="0 0 512.000000 512.000000"
 preserveAspectRatio="xMidYMid meet">

<g transform="translate(0.000000,512.000000) scale(0.100000,-0.100000)"
fill="#282828" stroke="none">
<path d="M2320 4795 c-409 -50 -769 -189 -1094 -426 -131 -95 -380 -344 -475
-475 -333 -457 -489 -1031 -426 -1564 49 -418 186 -774 426 -1104 95 -131 344
-380 475 -475 330 -240 686 -377 1104 -426 533 -63 1107 94 1564 426 127 93
370 334 464 461 245 330 388 693 437 1118 59 500 -76 1041 -368 1480 -130 196
-346 422 -534 559 -454 332 -1040 491 -1573 426z m550 -724 l0 -240 84 -27
c47 -15 83 -31 80 -36 -3 -4 1 -5 9 -3 7 3 55 -15 106 -41 51 -25 94 -44 96
-42 2 1 74 73 160 158 l155 155 218 -218 217 -217 -159 -159 -159 -159 51
-103 c28 -57 61 -139 74 -181 l23 -78 243 0 242 0 0 -310 0 -310 -238 0 -238
0 -28 -87 c-15 -49 -50 -134 -77 -190 -27 -57 -49 -106 -49 -111 0 -5 71 -79
157 -166 l156 -157 -216 -217 -217 -217 -163 163 -162 162 -87 -44 c-48 -25
-132 -59 -187 -77 l-101 -32 0 -238 0 -239 -310 0 -310 0 0 243 0 242 -78 23
c-84 26 -203 79 -214 96 -4 6 -8 7 -8 2 0 -4 -12 -1 -26 9 l-27 17 -163 -163
-164 -164 -217 217 -218 218 158 156 c86 85 157 161 157 167 0 6 -17 45 -39
87 -40 79 -82 186 -101 258 l-11 42 -239 0 -240 0 0 310 0 310 244 0 244 0 6
33 c10 52 56 166 103 256 l44 85 -163 163 -162 163 217 217 218 217 162 -162
c89 -89 166 -162 170 -162 4 0 49 20 100 44 76 36 152 65 245 92 9 3 12 60 12
244 l0 240 310 0 310 0 0 -239z"/>
<path d="M2365 3380 c-134 -31 -243 -87 -365 -189 -30 -25 -58 -45 -63 -43 -5
1 -6 -1 -4 -5 3 -5 -17 -37 -43 -72 -60 -80 -123 -206 -145 -291 -22 -86 -31
-283 -16 -363 54 -284 232 -513 489 -628 194 -87 451 -93 651 -14 199 78 385
257 462 445 37 92 42 103 45 118 32 156 30 338 -4 452 -93 308 -331 530 -638
595 -95 20 -270 18 -369 -5z m-16 -537 c65 -65 154 -153 199 -197 45 -43 82
-83 82 -87 0 -5 -34 -41 -75 -81 -42 -40 -132 -129 -202 -197 l-126 -123 -69
69 -70 70 126 128 c69 70 126 132 126 136 0 5 -57 66 -126 135 l-126 126 68
69 c38 38 70 69 72 69 2 0 56 -53 121 -117z m482 -13 c226 -219 269 -263 269
-271 0 -8 -44 -52 -284 -285 l-119 -115 -70 69 -70 70 132 131 132 130 -132
131 -132 132 69 69 c38 38 69 69 70 69 1 0 62 -58 135 -130z"/>
</g>
</svg>
