<svg version="1.0" xmlns="http://www.w3.org/2000/svg"
 width="1067.000000pt" height="600.000000pt" viewBox="0 0 1067.000000 600.000000"
 preserveAspectRatio="xMidYMid meet">

<g transform="translate(0.000000,600.000000) scale(0.100000,-0.100000)"
fill="#000000" stroke="none">
<path d="M0 3000 l0 -3000 5335 0 5335 0 0 3000 0 3000 -5335 0 -5335 0 0
-3000z m7773 1099 c212 -42 332 -103 463 -234 207 -205 295 -470 295 -880 0
-252 -32 -412 -116 -591 -58 -125 -114 -205 -205 -294 -173 -171 -397 -253
-690 -253 -164 0 -375 53 -460 114 -28 21 -42 26 -45 17 -3 -7 -6 -224 -7
-483 l-3 -470 -170 -3 c-93 -1 -180 0 -193 3 l-22 5 2 1523 3 1522 193 3 192
2 0 -78 c0 -43 3 -82 6 -85 4 -3 27 11 51 33 86 76 246 146 368 163 89 12 243
6 338 -14z m-5376 -27 c11 -7 51 -109 281 -717 33 -88 88 -232 122 -320 34
-88 81 -212 105 -275 24 -63 56 -149 72 -190 16 -41 38 -97 47 -123 10 -27 22
-45 27 -40 7 7 148 411 239 683 10 30 62 181 115 335 53 154 125 363 159 465
l63 185 197 3 c220 3 209 7 177 -74 -11 -27 -58 -155 -105 -284 -132 -364
-526 -1452 -642 -1775 -188 -519 -202 -549 -298 -646 -59 -60 -193 -149 -283
-188 -133 -58 -415 -109 -434 -79 -11 16 -12 309 -1 324 4 6 39 14 77 17 214
18 426 137 486 271 28 64 33 122 19 222 -20 149 -46 233 -175 569 -25 66 -61
158 -79 205 -18 47 -81 209 -140 360 -362 921 -416 1063 -410 1071 6 11 364
12 381 1z m2306 -759 c3 -681 5 -775 20 -831 47 -176 146 -272 312 -303 79
-15 215 -5 288 20 148 52 287 160 345 269 l32 60 0 776 0 776 200 0 200 0 0
-1100 0 -1100 -200 0 -200 0 0 141 0 142 -34 -44 c-85 -112 -315 -241 -482
-270 -86 -15 -299 -6 -379 16 -256 70 -425 262 -481 546 -14 73 -17 187 -21
844 -2 418 -1 775 3 793 l7 32 193 0 193 0 4 -767z"/>
<path d="M7335 3784 c-89 -23 -235 -101 -293 -155 l-32 -30 0 -632 1 -632 22
-26 c42 -49 151 -100 267 -125 83 -18 126 -18 252 1 353 53 538 282 569 700
19 273 -33 534 -135 673 -105 143 -273 216 -516 226 -63 3 -124 3 -135 0z"/>
</g>
</svg>
